<svg xmlns="http://www.w3.org/2000/svg" viewBox="0 0 512 512" role="img" aria-label="m-bench app icon">
  <rect x="16" y="16" width="480" height="480" rx="112" fill="#111111"/>
  <rect x="22" y="22" width="468" height="468" rx="106" fill="none" stroke="#262626" stroke-width="4"/>
  <g transform="translate(81,92) scale(5.3)">
    <path d="M10,52 V42 Q10,38 14,38 H18 Q22,38 22,42 V52 Z" fill="#A1A1A1"/>
    <path d="M26,52 V32 Q26,28 30,28 H34 Q38,28 38,32 V52 Z" fill="#A1A1A1"/>
    <path d="M42,52 V22 Q42,18 46,18 H50 Q54,18 54,22 V52 Z" fill="#FAFAFA"/>
    <path d="M40,16 V13 Q40,10 43,10 H53 Q56,10 56,13 V16 Z" fill="#00FF41"/>
  </g>
</svg>
